<?xml version="1.0" encoding="utf-8"?>
<!-- Generator: Adobe Illustrator 26.5.0, SVG Export Plug-In . SVG Version: 6.00 Build 0)  -->
<svg version="1.1" id="Layer_1" xmlns="http://www.w3.org/2000/svg" xmlns:xlink="http://www.w3.org/1999/xlink" x="0px" y="0px"
	 viewBox="0 0 886 383" style="enable-background:new 0 0 886 383;" xml:space="preserve">
<style type="text/css">
	.st0{fill:#FFFFFF;}
</style>
<path class="st0" d="M110.1,142.1V224H87.7v-81.9H110.1z M98.9,110c3.3,0,6.2,0.8,8.6,2.3c2.4,1.5,3.6,4.4,3.6,8.6
	c0,4.2-1.2,7-3.6,8.6c-2.4,1.6-5.2,2.3-8.6,2.3c-3.4,0-6.2-0.8-8.6-2.3c-2.3-1.6-3.5-4.5-3.5-8.6c0-4.2,1.2-7.1,3.5-8.6
	C92.7,110.8,95.6,110,98.9,110z M190.7,199.7c0,5.6-1.3,10.3-4,14.1c-2.6,3.8-6.5,6.7-11.6,8.7c-5.2,2-11.6,2.9-19.3,2.9
	c-5.7,0-10.6-0.4-14.7-1.1c-4.1-0.7-8.2-2-12.3-3.7v-18.5c4.4,2,9.2,3.7,14.3,5c5.1,1.3,9.6,1.9,13.5,1.9c4.3,0,7.4-0.6,9.3-1.9
	c1.9-1.3,2.9-3,2.9-5.1c0-1.4-0.4-2.6-1.2-3.7c-0.7-1.1-2.3-2.4-4.8-3.7c-2.5-1.4-6.4-3.2-11.7-5.5c-5.1-2.1-9.4-4.3-12.7-6.5
	c-3.3-2.2-5.7-4.8-7.3-7.8c-1.6-3-2.3-6.9-2.3-11.5c0-7.6,2.9-13.3,8.8-17.1c5.9-3.9,13.8-5.8,23.7-5.8c5.1,0,9.9,0.5,14.5,1.5
	c4.6,1,9.4,2.7,14.3,4.9l-6.7,16.1c-4.1-1.8-7.9-3.2-11.5-4.3c-3.6-1.1-7.2-1.7-10.9-1.7c-3.3,0-5.7,0.4-7.4,1.3
	c-1.7,0.9-2.5,2.2-2.5,4c0,1.3,0.4,2.5,1.2,3.5c0.9,1,2.5,2.2,5,3.4c2.5,1.2,6.1,2.8,10.9,4.8c4.6,1.9,8.7,3.9,12.1,6
	c3.4,2.1,6.1,4.6,7.9,7.7C189.8,190.9,190.7,194.9,190.7,199.7z M230.5,110v26.5c0,3.1-0.1,6.1-0.3,9.2c-0.1,3-0.3,5.4-0.6,7h0.9
	c2.1-3.4,5.1-6.2,8.8-8.6c3.7-2.4,8.5-3.6,14.4-3.6c9.2,0,16.6,3.6,22.3,10.8c5.7,7.2,8.6,17.7,8.6,31.6c0,9.3-1.3,17.2-4,23.5
	c-2.6,6.3-6.3,11.1-11.1,14.3c-4.7,3.2-10.2,4.8-16.5,4.8c-6,0-10.7-1.1-14.2-3.2c-3.5-2.1-6.3-4.6-8.4-7.3h-1.5l-3.7,9h-17.1V110
	H230.5z M246.5,158.4c-3.9,0-7,0.8-9.3,2.4c-2.3,1.6-4,4-5.1,7.3c-1,3.2-1.6,7.3-1.7,12.2v2.4c0,8,1.2,14.1,3.5,18.3
	c2.3,4.2,6.6,6.3,12.8,6.3c4.6,0,8.2-2.1,10.9-6.4c2.7-4.2,4.1-10.4,4.1-18.4c0-8-1.4-14-4.1-18.1
	C255,160.5,251.2,158.4,246.5,158.4z M378.2,142.1V224h-17.1l-3-10.5h-1.2c-1.8,2.8-4,5.1-6.6,6.8s-5.5,3.1-8.7,3.9
	c-3.2,0.8-6.5,1.2-9.9,1.2c-5.9,0-11-1-15.3-3.1c-4.3-2.1-7.7-5.3-10.2-9.7c-2.4-4.4-3.6-10.1-3.6-17.1v-53.4H325v47.8
	c0,5.9,1,10.3,3.1,13.3c2.1,3,5.4,4.5,10,4.5c4.5,0,8.1-1,10.7-3.1c2.6-2.1,4.4-5.2,5.4-9.2c1.1-4.1,1.6-9,1.6-14.8v-38.5H378.2z
	 M424,224h-22.3V110H424V224z M469.8,224h-22.3V110h22.3V224z"/>
<path class="st0" d="M522.6,152.6L496,224h-8l26.6-71.4H522.6z M556.1,176.8h-13.3V224h-8.1v-47.2h-9.5v-3.9l9.5-2.7v-3.6
	c0-4.5,0.7-8.1,2-10.9c1.3-2.8,3.3-4.9,5.8-6.2c2.5-1.3,5.6-2,9.3-2c2.1,0,3.9,0.2,5.6,0.5c1.7,0.4,3.2,0.8,4.5,1.2l-2.1,6.4
	c-1.1-0.4-2.4-0.7-3.8-1c-1.4-0.3-2.8-0.5-4.2-0.5c-3.1,0-5.4,1-6.9,3c-1.5,2-2.2,5.1-2.2,9.4v3.9h13.3V176.8z M574,170.5V224h-8.1
	v-53.5H574z M570.1,150.5c1.3,0,2.5,0.4,3.4,1.3c1,0.8,1.5,2.2,1.5,4c0,1.8-0.5,3.1-1.5,4c-0.9,0.9-2.1,1.3-3.4,1.3
	c-1.4,0-2.6-0.4-3.5-1.3c-0.9-0.9-1.4-2.2-1.4-4c0-1.8,0.5-3.2,1.4-4C567.5,150.9,568.7,150.5,570.1,150.5z M615.5,169.5
	c1.1,0,2.2,0.1,3.4,0.2c1.2,0.1,2.2,0.2,3.1,0.4l-1,7.5c-0.9-0.2-1.9-0.4-2.9-0.5c-1.1-0.1-2.1-0.2-3-0.2c-2.1,0-4.2,0.4-6.1,1.3
	c-1.9,0.8-3.5,2.1-5,3.7c-1.4,1.6-2.6,3.5-3.4,5.8c-0.8,2.2-1.2,4.8-1.2,7.5V224h-8.2v-53.5h6.7l0.9,9.9h0.3c1.1-2,2.4-3.8,4-5.4
	c1.6-1.7,3.4-3,5.4-4C610.6,170,612.9,169.5,615.5,169.5z M640.2,170.5V224h-8.1v-53.5H640.2z M636.2,150.5c1.3,0,2.5,0.4,3.4,1.3
	c1,0.8,1.5,2.2,1.5,4c0,1.8-0.5,3.1-1.5,4c-0.9,0.9-2.1,1.3-3.4,1.3c-1.4,0-2.6-0.4-3.5-1.3c-0.9-0.9-1.4-2.2-1.4-4
	c0-1.8,0.5-3.2,1.4-4C633.6,150.9,634.8,150.5,636.2,150.5z M682.7,169.5c6.3,0,11.1,1.6,14.4,4.7c3.3,3.1,4.9,8.1,4.9,14.9V224h-8
	v-34.3c0-4.5-1-7.8-3.1-10c-2-2.2-5.1-3.3-9.3-3.3c-5.9,0-10.1,1.7-12.5,5s-3.6,8.2-3.6,14.6v28h-8.1v-53.5h6.5l1.2,7.7h0.4
	c1.1-1.9,2.6-3.5,4.3-4.7c1.8-1.3,3.7-2.3,5.9-2.9C678,169.9,680.3,169.5,682.7,169.5z M740.1,225c-4.8,0-9.1-1-12.7-3
	c-3.7-2-6.5-5-8.6-9.1c-2.1-4.1-3.1-9.2-3.1-15.4c0-6.5,1.1-11.8,3.2-15.9c2.2-4.1,5.2-7.2,9-9.2c3.8-2,8.1-3,13-3
	c2.7,0,5.2,0.3,7.7,0.8c2.5,0.5,4.6,1.2,6.2,2l-2.4,6.8c-1.6-0.7-3.5-1.2-5.7-1.8c-2.1-0.5-4.1-0.8-6-0.8c-3.7,0-6.8,0.8-9.3,2.4
	c-2.4,1.6-4.3,3.9-5.5,7c-1.2,3.1-1.8,6.9-1.8,11.4c0,4.3,0.6,8,1.8,11.1c1.2,3.1,3,5.4,5.3,7c2.4,1.6,5.3,2.4,8.9,2.4
	c2.8,0,5.4-0.3,7.7-0.9c2.3-0.6,4.3-1.3,6.2-2.1v7.2c-1.8,0.9-3.8,1.6-6,2.1C745.8,224.7,743.2,225,740.1,225z M774.7,170.5V224
	h-8.1v-53.5H774.7z M770.8,150.5c1.3,0,2.5,0.4,3.4,1.3c1,0.8,1.5,2.2,1.5,4c0,1.8-0.5,3.1-1.5,4c-0.9,0.9-2.1,1.3-3.4,1.3
	c-1.4,0-2.6-0.4-3.5-1.3c-0.9-0.9-1.4-2.2-1.4-4c0-1.8,0.5-3.2,1.4-4C768.2,150.9,769.4,150.5,770.8,150.5z"/>
<path class="st0" d="M317.4,268.8h10.4V279h-10.4V268.8z M359.3,255.1c-0.2-1.4-0.6-2.6-1.4-3.8c-1.1-1.5-2.8-2.3-5.1-2.3
	c-3.3,0-5.5,1.6-6.7,4.9c-0.6,1.7-1,4-1,6.9c0,2.7,0.3,4.9,1,6.6c1.2,3.1,3.3,4.6,6.6,4.6c2.3,0,3.9-0.6,4.9-1.8
	c1-1.2,1.5-2.8,1.7-4.8h9.9c-0.2,3-1.3,5.8-3.2,8.4c-3.1,4.3-7.6,6.4-13.6,6.4s-10.4-1.8-13.2-5.3c-2.8-3.6-4.2-8.2-4.2-13.8
	c0-6.4,1.6-11.4,4.7-14.9c3.1-3.6,7.4-5.3,12.9-5.3c4.7,0,8.5,1,11.5,3.1c3,2.1,4.8,5.8,5.3,11.1H359.3z M392.7,272.1
	c2.8,0,5-1,6.6-3c1.5-2,2.3-4.9,2.3-8.6s-0.8-6.6-2.3-8.6c-1.5-2-3.7-3-6.6-3s-5,1-6.6,3c-1.5,2-2.3,4.9-2.3,8.6s0.8,6.6,2.3,8.6
	C387.7,271.1,389.9,272.1,392.7,272.1z M411.8,260.4c0,5.5-1.6,10.2-4.7,14c-3.1,3.9-7.9,5.8-14.3,5.8c-6.4,0-11.2-1.9-14.3-5.8
	c-3.1-3.9-4.7-8.6-4.7-14c0-5.4,1.6-10,4.7-14c3.1-3.9,7.9-5.9,14.3-5.9c6.4,0,11.2,2,14.3,5.9C410.2,250.4,411.8,255.1,411.8,260.4
	z M460.4,240.9c1.6,0,3.3,0.3,4.9,1c1.6,0.6,3,1.8,4.3,3.3c1,1.3,1.8,2.9,2.1,4.8c0.2,1.3,0.3,3.1,0.3,5.5L472,279h-10v-23.7
	c0-1.4-0.2-2.6-0.7-3.5c-0.9-1.7-2.5-2.6-4.8-2.6c-2.7,0-4.5,1.1-5.6,3.3c-0.5,1.2-0.8,2.6-0.8,4.3V279h-9.8v-22.2
	c0-2.2-0.2-3.8-0.7-4.8c-0.8-1.8-2.4-2.7-4.8-2.7c-2.8,0-4.6,0.9-5.6,2.7c-0.5,1-0.8,2.6-0.8,4.6V279h-9.9v-37.2h9.5v5.4
	c1.2-1.9,2.3-3.3,3.4-4.1c1.9-1.5,4.3-2.2,7.3-2.2c2.8,0,5.1,0.6,6.9,1.9c1.4,1.2,2.5,2.7,3.2,4.5c1.3-2.2,2.9-3.8,4.8-4.8
	C455.7,241.4,458,240.9,460.4,240.9z"/>
</svg>
