<svg width="689" height="170" viewBox="0 0 689 170" fill="none" xmlns="http://www.w3.org/2000/svg">
<g clip-path="url(#clip0_5_22)">
<rect width="689" height="170" fill="white"/>
<path d="M23.291 32.0801V113.965H0.952148V32.0801H23.291ZM12.1582 0C15.4785 0 18.335 0.78125 20.7275 2.34375C23.1201 3.85742 24.3164 6.71387 24.3164 10.9131C24.3164 15.0635 23.1201 17.9443 20.7275 19.5557C18.335 21.1182 15.4785 21.8994 12.1582 21.8994C8.78906 21.8994 5.9082 21.1182 3.51562 19.5557C1.17188 17.9443 0 15.0635 0 10.9131C0 6.71387 1.17188 3.85742 3.51562 2.34375C5.9082 0.78125 8.78906 0 12.1582 0Z" fill="white"/>
<path d="M103.931 89.6484C103.931 95.2148 102.612 99.9268 99.9756 103.784C97.3877 107.593 93.5059 110.498 88.3301 112.5C83.1543 114.453 76.709 115.43 68.9941 115.43C63.2812 115.43 58.374 115.063 54.2725 114.331C50.2197 113.599 46.1182 112.378 41.9678 110.669V92.2119C46.4111 94.2139 51.1719 95.874 56.25 97.1924C61.377 98.4619 65.8691 99.0967 69.7266 99.0967C74.0723 99.0967 77.1729 98.4619 79.0283 97.1924C80.9326 95.874 81.8848 94.165 81.8848 92.0654C81.8848 90.6982 81.4941 89.4775 80.7129 88.4033C79.9805 87.2803 78.3691 86.0352 75.8789 84.668C73.3887 83.252 69.4824 81.4209 64.1602 79.1748C59.0332 77.0264 54.8096 74.8535 51.4893 72.6562C48.2178 70.459 45.7764 67.8711 44.165 64.8926C42.6025 61.8652 41.8213 58.0322 41.8213 53.3936C41.8213 45.8252 44.751 40.1367 50.6104 36.3281C56.5186 32.4707 64.4043 30.542 74.2676 30.542C79.3457 30.542 84.1797 31.0547 88.7695 32.0801C93.4082 33.1055 98.1689 34.7412 103.052 36.9873L96.3135 53.1006C92.2607 51.3428 88.4277 49.9023 84.8145 48.7793C81.25 47.6562 77.6123 47.0947 73.9014 47.0947C70.6299 47.0947 68.1641 47.5342 66.5039 48.4131C64.8438 49.292 64.0137 50.6348 64.0137 52.4414C64.0137 53.7598 64.4287 54.9316 65.2588 55.957C66.1377 56.9824 67.7979 58.1299 70.2393 59.3994C72.7295 60.6201 76.3672 62.207 81.1523 64.1602C85.791 66.0645 89.8193 68.0664 93.2373 70.166C96.6553 72.2168 99.292 74.7803 101.147 77.8564C103.003 80.8838 103.931 84.8145 103.931 89.6484Z" fill="white"/>
<path d="M143.701 0V26.5137C143.701 29.5898 143.604 32.6416 143.408 35.6689C143.262 38.6963 143.066 41.04 142.822 42.7002H143.701C145.85 39.3311 148.779 36.4746 152.49 34.1309C156.201 31.7383 161.011 30.542 166.919 30.542C176.099 30.542 183.545 34.1309 189.258 41.3086C194.971 48.4863 197.827 59.0088 197.827 72.876C197.827 82.2021 196.509 90.0391 193.872 96.3867C191.235 102.686 187.549 107.446 182.812 110.669C178.076 113.843 172.583 115.43 166.333 115.43C160.327 115.43 155.591 114.355 152.124 112.207C148.657 110.059 145.85 107.642 143.701 104.956H142.163L138.428 113.965H121.362V0H143.701ZM159.741 48.4131C155.835 48.4131 152.734 49.2188 150.439 50.8301C148.145 52.4414 146.46 54.8584 145.386 58.0811C144.36 61.3037 143.799 65.3809 143.701 70.3125V72.7295C143.701 80.6885 144.873 86.792 147.217 91.04C149.561 95.2393 153.833 97.3389 160.034 97.3389C164.624 97.3389 168.262 95.2148 170.947 90.9668C173.682 86.7188 175.049 80.5908 175.049 72.583C175.049 64.5752 173.682 58.5449 170.947 54.4922C168.213 50.4395 164.478 48.4131 159.741 48.4131Z" fill="white"/>
<path d="M291.431 32.0801V113.965H274.292L271.289 103.491H270.117C268.359 106.274 266.162 108.545 263.525 110.303C260.889 112.061 257.983 113.354 254.81 114.185C251.636 115.015 248.34 115.43 244.922 115.43C239.062 115.43 233.96 114.404 229.614 112.354C225.269 110.254 221.875 107.007 219.434 102.612C217.041 98.2178 215.845 92.5049 215.845 85.4736V32.0801H238.184V79.9072C238.184 85.7666 239.233 90.1855 241.333 93.1641C243.433 96.1426 246.777 97.6318 251.367 97.6318C255.908 97.6318 259.473 96.6064 262.061 94.5557C264.648 92.4561 266.455 89.4043 267.48 85.4004C268.555 81.3477 269.092 76.416 269.092 70.6055V32.0801H291.431Z" fill="white"/>
<path d="M337.207 113.965H314.868V0H337.207V113.965Z" fill="white"/>
<path d="M383.057 113.965H360.718V0H383.057V113.965Z" fill="white"/>
<path d="M435.829 42.5781L409.267 113.965H401.259L427.87 42.5781H435.829Z" fill="white"/>
<path d="M469.325 66.7969H455.995V113.965H447.89V66.7969H438.417V62.8906L447.89 60.2051V56.6406C447.89 52.1484 448.557 48.5026 449.892 45.7031C451.226 42.8711 453.163 40.7878 455.702 39.4531C458.241 38.1185 461.334 37.4512 464.979 37.4512C467.03 37.4512 468.902 37.6302 470.595 37.9883C472.32 38.3464 473.834 38.7533 475.136 39.209L473.036 45.6055C471.929 45.2474 470.676 44.9219 469.276 44.6289C467.909 44.3034 466.509 44.1406 465.077 44.1406C461.985 44.1406 459.69 45.1497 458.192 47.168C456.728 49.1536 455.995 52.2786 455.995 56.543V60.4492H469.325V66.7969ZM487.245 60.4492V113.965H479.14V60.4492H487.245ZM483.29 40.4297C484.625 40.4297 485.764 40.8691 486.708 41.748C487.685 42.5944 488.173 43.929 488.173 45.752C488.173 47.5423 487.685 48.877 486.708 49.7559C485.764 50.6348 484.625 51.0742 483.29 51.0742C481.89 51.0742 480.718 50.6348 479.774 49.7559C478.863 48.877 478.407 47.5423 478.407 45.752C478.407 43.929 478.863 42.5944 479.774 41.748C480.718 40.8691 481.89 40.4297 483.29 40.4297Z" fill="white"/>
<path d="M528.7 59.4727C529.774 59.4727 530.897 59.5378 532.069 59.668C533.241 59.7656 534.283 59.9121 535.194 60.1074L534.169 67.627C533.29 67.3991 532.313 67.2201 531.239 67.0898C530.165 66.9596 529.156 66.8945 528.212 66.8945C526.063 66.8945 524.029 67.334 522.108 68.2129C520.22 69.0592 518.56 70.2962 517.128 71.9238C515.696 73.5189 514.573 75.4557 513.759 77.7344C512.945 79.9805 512.538 82.487 512.538 85.2539V113.965H504.384V60.4492H511.122L512.001 70.3125H512.343C513.45 68.3268 514.784 66.5202 516.347 64.8926C517.909 63.2324 519.716 61.9141 521.767 60.9375C523.85 59.9609 526.161 59.4727 528.7 59.4727Z" fill="white"/>
<path d="M553.407 60.4492V113.965H545.302V60.4492H553.407ZM549.452 40.4297C550.787 40.4297 551.926 40.8691 552.87 41.748C553.847 42.5944 554.335 43.929 554.335 45.752C554.335 47.5423 553.847 48.877 552.87 49.7559C551.926 50.6348 550.787 51.0742 549.452 51.0742C548.052 51.0742 546.881 50.6348 545.937 49.7559C545.025 48.877 544.569 47.5423 544.569 45.752C544.569 43.929 545.025 42.5944 545.937 41.748C546.881 40.8691 548.052 40.4297 549.452 40.4297Z" fill="white"/>
<path d="M595.937 59.4727C602.284 59.4727 607.086 61.0352 610.341 64.1602C613.596 67.2526 615.224 72.2331 615.224 79.1016V113.965H607.216V79.6387C607.216 75.179 606.19 71.8424 604.14 69.6289C602.121 67.4154 599.013 66.3086 594.813 66.3086C588.889 66.3086 584.722 67.985 582.313 71.3379C579.905 74.6908 578.7 79.5573 578.7 85.9375V113.965H570.595V60.4492H577.138L578.358 68.1641H578.798C579.937 66.276 581.386 64.6973 583.144 63.4277C584.901 62.1257 586.871 61.1491 589.052 60.498C591.233 59.8145 593.528 59.4727 595.937 59.4727Z" fill="white"/>
<path d="M653.358 114.941C648.541 114.941 644.293 113.949 640.614 111.963C636.936 109.977 634.071 106.95 632.021 102.881C629.97 98.8118 628.944 93.6849 628.944 87.5C628.944 81.0221 630.019 75.7324 632.167 71.6309C634.348 67.4967 637.343 64.4368 641.151 62.4512C644.96 60.4655 649.289 59.4727 654.14 59.4727C656.809 59.4727 659.381 59.7493 661.854 60.3027C664.361 60.8236 666.412 61.4909 668.007 62.3047L665.565 69.0918C663.938 68.4408 662.05 67.8548 659.901 67.334C657.785 66.8132 655.8 66.5527 653.944 66.5527C650.233 66.5527 647.141 67.3503 644.667 68.9453C642.226 70.5404 640.386 72.8841 639.149 75.9766C637.945 79.069 637.343 82.8776 637.343 87.4023C637.343 91.7318 637.929 95.4264 639.101 98.4863C640.305 101.546 642.079 103.89 644.423 105.518C646.799 107.113 649.761 107.91 653.31 107.91C656.142 107.91 658.697 107.617 660.976 107.031C663.254 106.413 665.321 105.697 667.177 104.883V112.109C665.386 113.021 663.384 113.721 661.171 114.209C658.99 114.697 656.386 114.941 653.358 114.941Z" fill="white"/>
<path d="M687.978 60.4492V113.965H679.872V60.4492H687.978ZM684.022 40.4297C685.357 40.4297 686.496 40.8691 687.44 41.748C688.417 42.5944 688.905 43.929 688.905 45.752C688.905 47.5423 688.417 48.877 687.44 49.7559C686.496 50.6348 685.357 51.0742 684.022 51.0742C682.623 51.0742 681.451 50.6348 680.507 49.7559C679.595 48.877 679.14 47.5423 679.14 45.752C679.14 43.929 679.595 42.5944 680.507 41.748C681.451 40.8691 682.623 40.4297 684.022 40.4297Z" fill="white"/>
<path d="M230.608 158.779H240.965V168.965H230.608V158.779Z" fill="white"/>
<path d="M272.513 145.073C272.33 143.683 271.863 142.43 271.111 141.313C270.018 139.81 268.32 139.058 266.019 139.058C262.737 139.058 260.493 140.687 259.285 143.945C258.647 145.677 258.328 147.979 258.328 150.85C258.328 153.584 258.647 155.783 259.285 157.446C260.447 160.545 262.635 162.095 265.848 162.095C268.126 162.095 269.744 161.479 270.701 160.249C271.658 159.019 272.239 157.424 272.444 155.464H282.391C282.163 158.426 281.092 161.229 279.178 163.872C276.124 168.133 271.601 170.264 265.608 170.264C259.616 170.264 255.206 168.486 252.381 164.932C249.555 161.377 248.143 156.763 248.143 151.089C248.143 144.686 249.703 139.707 252.825 136.152C255.947 132.598 260.254 130.82 265.745 130.82C270.416 130.82 274.233 131.868 277.195 133.965C280.18 136.061 281.946 139.764 282.493 145.073H272.513Z" fill="white"/>
<path d="M305.94 162.095C308.789 162.095 310.976 161.081 312.503 159.053C314.03 157.025 314.793 154.142 314.793 150.405C314.793 146.668 314.03 143.797 312.503 141.792C310.976 139.764 308.789 138.75 305.94 138.75C303.092 138.75 300.893 139.764 299.344 141.792C297.817 143.797 297.054 146.668 297.054 150.405C297.054 154.142 297.817 157.025 299.344 159.053C300.893 161.081 303.092 162.095 305.94 162.095ZM325.013 150.405C325.013 155.874 323.44 160.557 320.296 164.453C317.151 168.327 312.378 170.264 305.975 170.264C299.572 170.264 294.798 168.327 291.653 164.453C288.509 160.557 286.937 155.874 286.937 150.405C286.937 145.028 288.509 140.368 291.653 136.426C294.798 132.484 299.572 130.513 305.975 130.513C312.378 130.513 317.151 132.484 320.296 136.426C323.44 140.368 325.013 145.028 325.013 150.405Z" fill="white"/>
<path d="M373.65 130.889C375.291 130.889 376.909 131.208 378.504 131.846C380.099 132.484 381.546 133.6 382.845 135.195C383.893 136.494 384.599 138.089 384.964 139.98C385.192 141.234 385.306 143.068 385.306 145.483L385.237 168.965H375.257V145.244C375.257 143.831 375.029 142.669 374.573 141.758C373.707 140.026 372.112 139.16 369.788 139.16C367.099 139.16 365.242 140.277 364.217 142.51C363.693 143.695 363.431 145.119 363.431 146.782V168.965H353.621V146.782C353.621 144.572 353.393 142.965 352.938 141.963C352.117 140.163 350.511 139.263 348.118 139.263C345.338 139.263 343.47 140.163 342.513 141.963C341.989 142.988 341.727 144.515 341.727 146.543V168.965H331.849V131.777H341.316V137.212C342.524 135.275 343.663 133.896 344.734 133.076C346.626 131.618 349.075 130.889 352.083 130.889C354.931 130.889 357.233 131.515 358.987 132.769C360.4 133.931 361.471 135.423 362.2 137.246C363.476 135.059 365.06 133.452 366.951 132.427C368.956 131.401 371.189 130.889 373.65 130.889Z" fill="white"/>
</g>
<defs>
<clipPath id="clip0_5_22">
<rect width="689" height="170" fill="white"/>
</clipPath>
</defs>
</svg>
